<svg width="960" height="520" viewBox="0 0 960 520" fill="none" xmlns="http://www.w3.org/2000/svg" role="img" aria-label="KIAAN — Sakha Companion premium logo">
  <defs>
    <linearGradient id="fluteGradient" x1="0%" y1="0%" x2="100%" y2="100%">
      <stop offset="0%" stop-color="#d6a240" />
      <stop offset="45%" stop-color="#f5c56a" />
      <stop offset="100%" stop-color="#c0c7d4" />
    </linearGradient>
    <linearGradient id="kArm" x1="0%" y1="0%" x2="100%" y2="0%">
      <stop offset="0%" stop-color="#f8fbff" />
      <stop offset="100%" stop-color="#d2dae7" />
    </linearGradient>
    <linearGradient id="featherGradient" x1="0%" y1="0%" x2="100%" y2="100%">
      <stop offset="0%" stop-color="#12c8c7" />
      <stop offset="45%" stop-color="#1ca3e0" />
      <stop offset="78%" stop-color="#7ad6ff" />
      <stop offset="100%" stop-color="#c5b7ff" />
    </linearGradient>
    <radialGradient id="featherEye" cx="50%" cy="50%" r="70%">
      <stop offset="0%" stop-color="#ffe7a3" />
      <stop offset="55%" stop-color="#ffbf6b" />
      <stop offset="100%" stop-color="#1d3b8b" />
    </radialGradient>
    <radialGradient id="aura" cx="50%" cy="50%" r="70%">
      <stop offset="0%" stop-color="rgba(106,215,255,0.35)" />
      <stop offset="60%" stop-color="rgba(37,99,235,0.18)" />
      <stop offset="100%" stop-color="rgba(6,9,18,0)" />
    </radialGradient>
  </defs>
  <rect width="960" height="520" rx="40" fill="#07080d" />
  <rect x="18" y="18" width="924" height="484" rx="36" fill="#0d101a" stroke="rgba(255,255,255,0.04)" />
  <g transform="translate(120 90)">
    <circle cx="160" cy="170" r="132" fill="url(#aura)" />
    <circle cx="160" cy="170" r="108" stroke="url(#featherGradient)" stroke-width="3.5" opacity="0.35" />
    <circle cx="160" cy="170" r="92" stroke="url(#featherGradient)" stroke-width="2" opacity="0.28" />

    <line x1="124" y1="66" x2="124" y2="274" stroke="url(#fluteGradient)" stroke-width="18" stroke-linecap="round" />
    <g fill="#0b1020" opacity="0.82">
      <circle cx="124" cy="118" r="4" />
      <circle cx="124" cy="156" r="4" />
      <circle cx="124" cy="194" r="4" />
      <circle cx="124" cy="232" r="4" />
    </g>
    <rect x="100" y="60" width="48" height="224" rx="16" fill="url(#fluteGradient)" opacity="0.2" />

    <path d="M136 176 L236 88" stroke="url(#kArm)" stroke-width="18" stroke-linecap="round" />
    <path d="M136 188 L246 252" stroke="url(#kArm)" stroke-width="18" stroke-linecap="round" />

    <g transform="translate(210 16)">
      <path d="M46 224 C52 176 96 118 152 98 C186 86 214 112 208 150 C200 198 152 230 112 246 C90 256 64 252 50 238" fill="url(#featherGradient)" stroke="rgba(27,86,152,0.48)" stroke-width="3" filter="drop-shadow(0 12px 30px rgba(32,120,190,0.38))" />
      <path d="M92 96 C100 120 84 160 62 200" stroke="#f5fbff" stroke-width="3" stroke-linecap="round" opacity="0.9" />
      <ellipse cx="132" cy="96" rx="26" ry="18" fill="url(#featherEye)" opacity="0.95" />
      <circle cx="132" cy="96" r="34" stroke="rgba(255,255,255,0.65)" stroke-width="2" opacity="0.6" />
    </g>
  </g>

  <g transform="translate(420 132)">
    <text x="0" y="110" fill="url(#fluteGradient)" font-family="'Plus Jakarta Sans','Inter','Manrope',sans-serif" font-weight="800" font-size="120" letter-spacing="14">KIAAN</text>
    <rect x="6" y="136" width="454" height="10" rx="5" fill="url(#fluteGradient)" opacity="0.85" />
    <text x="6" y="188" fill="#e8edf5" font-family="'Plus Jakarta Sans','Inter','Manrope',sans-serif" font-weight="700" font-size="28" letter-spacing="4">Sakha Companion</text>
    <text x="6" y="226" fill="#c9d5ee" font-family="'Plus Jakarta Sans','Inter','Manrope',sans-serif" font-weight="600" font-size="20" letter-spacing="5">Your Guide to Inner Peace</text>
  </g>
</svg>
