<svg width="512" height="512" viewBox="0 0 256 256" fill="none" xmlns="http://www.w3.org/2000/svg">
  <defs>
    <linearGradient id="sunrise" x1="0%" y1="0%" x2="100%" y2="100%">
      <stop offset="0%" stop-color="#ff7a3c" />
      <stop offset="50%" stop-color="#ff9f52" />
      <stop offset="100%" stop-color="#ffd36f" />
    </linearGradient>
    <radialGradient id="halo" cx="30%" cy="30%" r="80%">
      <stop offset="0%" stop-color="rgba(255, 147, 89, 0.36)" />
      <stop offset="60%" stop-color="rgba(255, 208, 112, 0.14)" />
      <stop offset="100%" stop-color="rgba(255, 147, 89, 0)" />
    </radialGradient>
  </defs>
  <rect width="256" height="256" rx="56" fill="#0b0b0f" />
  <rect x="14" y="14" width="228" height="228" rx="48" fill="#0f1624" />
  <rect x="24" y="24" width="208" height="208" rx="44" fill="url(#halo)" />
  <rect x="36" y="36" width="184" height="184" rx="40" fill="url(#sunrise)" />
  <rect x="48" y="48" width="160" height="160" rx="36" fill="rgba(255,255,255,0.08)" />
  <path d="M72 184V96c0-4.4 3.4-8 7.8-8h17.2c2.8 0 5.3 1.4 6.7 3.8l18.3 31 18.3-31c1.4-2.4 3.9-3.8 6.7-3.8H166c4.4 0 7.8 3.6 7.8 8v88c0 4.4-3.4 8-7.8 8h-16.3c-4.4 0-7.8-3.6-7.8-8v-47l-14.8 23.6c-2.5 4-8.4 4-10.9 0L102 137v47c0 4.4-3.4 8-7.8 8H79.8c-4.4 0-7.8-3.6-7.8-8Z" fill="#f9fafb" />
  <path d="M64 102c14.4-17.2 38.2-28 64-28 26 0 49.6 10.8 64.2 28" stroke="#fff" stroke-width="6" stroke-linecap="round" opacity="0.26" />
</svg>
