<svg width="640" height="320" viewBox="0 0 320 160" fill="none" xmlns="http://www.w3.org/2000/svg">
  <defs>
    <linearGradient id="resonance" x1="0%" y1="0%" x2="100%" y2="100%">
      <stop offset="0%" stop-color="#1e3a8a" />
      <stop offset="45%" stop-color="#2563eb" />
      <stop offset="100%" stop-color="#6ad7ff" />
    </linearGradient>
    <linearGradient id="flute" x1="0%" y1="0%" x2="100%" y2="0%">
      <stop offset="0%" stop-color="#ff7a3c" />
      <stop offset="50%" stop-color="#ff9f52" />
      <stop offset="100%" stop-color="#ffd36f" />
    </linearGradient>
    <radialGradient id="aura" cx="50%" cy="50%" r="60%">
      <stop offset="0%" stop-color="rgba(106, 215, 255, 0.42)" />
      <stop offset="70%" stop-color="rgba(37, 99, 235, 0.18)" />
      <stop offset="100%" stop-color="rgba(15, 23, 42, 0)" />
    </radialGradient>
  </defs>
  <rect width="320" height="160" rx="28" fill="#050507" />
  <rect x="6" y="6" width="308" height="148" rx="24" fill="#0f1624" />
  <circle cx="84" cy="80" r="46" fill="url(#aura)" />
  <g transform="translate(40 10)">
    <path d="M80 132 C80 132, 76 102, 78 64 C80 22, 80 14, 80 10" stroke="url(#resonance)" stroke-width="2.4" stroke-linecap="round" fill="none" />
    <path d="M78 64 C70 58, 60 52, 50 48 C60 54, 70 60, 78 68" fill="url(#resonance)" opacity="0.9" />
    <path d="M82 64 C90 58, 100 52, 110 48 C100 54, 90 60, 82 68" fill="url(#resonance)" opacity="0.9" />
    <ellipse cx="80" cy="40" rx="16" ry="12" fill="none" stroke="url(#resonance)" stroke-width="3" />
    <ellipse cx="80" cy="40" rx="10" ry="7" fill="none" stroke="#1e3a8a" stroke-width="2" opacity="0.9" />
    <ellipse cx="80" cy="40" rx="6" ry="4.8" fill="url(#flute)" />
  </g>
  <text x="200" y="78" text-anchor="middle" fill="url(#resonance)" font-family="'Manrope', 'Inter', sans-serif" font-weight="800" font-size="44" letter-spacing="8">KIAAN</text>
  <line x1="116" y1="96" x2="284" y2="96" stroke="url(#flute)" stroke-width="5" stroke-linecap="round" />
  <text x="200" y="120" text-anchor="middle" fill="#e8edf5" font-family="'Inter', 'Manrope', sans-serif" font-weight="600" font-size="16" letter-spacing="1.6">MindVibe Companion</text>
  <text x="200" y="138" text-anchor="middle" fill="#c2d9ff" font-family="'Inter', 'Manrope', sans-serif" font-weight="600" font-size="12" letter-spacing="2">Your Guide to Inner Peace</text>
</svg>
