<svg width="192" height="192" viewBox="0 0 192 192" fill="none" xmlns="http://www.w3.org/2000/svg">
  <!-- Android Legacy Icon - 192x192 (xxxhdpi) -->
  <defs>
    <linearGradient id="legacy-gradient" x1="0%" y1="0%" x2="100%" y2="100%">
      <stop offset="0%" stop-color="#FF6B35"/>
      <stop offset="50%" stop-color="#F7931E"/>
      <stop offset="100%" stop-color="#FFD700"/>
    </linearGradient>
    <radialGradient id="legacy-glow" cx="50%" cy="50%" r="50%" fx="30%" fy="30%">
      <stop offset="0%" stop-color="rgba(255, 215, 0, 0.35)"/>
      <stop offset="70%" stop-color="rgba(255, 107, 53, 0.1)"/>
      <stop offset="100%" stop-color="rgba(255, 107, 53, 0)"/>
    </radialGradient>
    <linearGradient id="legacy-symbol" x1="0%" y1="0%" x2="100%" y2="100%">
      <stop offset="0%" stop-color="#1a1a1a"/>
      <stop offset="100%" stop-color="#0d0d0d"/>
    </linearGradient>
    <filter id="legacy-shadow" x="-20%" y="-20%" width="140%" height="140%">
      <feDropShadow dx="0" dy="2" stdDeviation="4" flood-color="#FF6B35" flood-opacity="0.3"/>
    </filter>
  </defs>
  
  <!-- Circle Background -->
  <circle cx="96" cy="96" r="88" fill="url(#legacy-gradient)" filter="url(#legacy-shadow)"/>
  <circle cx="96" cy="96" r="84" fill="url(#legacy-glow)"/>
  
  <!-- M Symbol -->
  <g transform="translate(96, 96)">
    <path d="M-40 32V-22c0-3.2 2-5.6 4.8-5.6h14.4c2 0 3.6 0.8 4.4 2.4l16.4 25.6 16.4-25.6c0.8-1.6 2.4-2.4 4.4-2.4h14.4c2.8 0 4.8 2.4 4.8 5.6v54c0 3.2-2 5.6-4.8 5.6h-12c-2.8 0-4.8-2.4-4.8-5.6V16l-14.4 22.4c-1.6 2.8-5.6 2.8-7.2 0L-23 16v16c0 3.2-2 5.6-4.8 5.6h-12c-2.8 0-4.8-2.4-4.8-5.6z" fill="url(#legacy-symbol)"/>
  </g>
</svg>
