<svg width="512" height="512" viewBox="0 0 512 512" fill="none" xmlns="http://www.w3.org/2000/svg">
  <!-- Android Adaptive Icon - Foreground Layer -->
  <defs>
    <linearGradient id="android-symbol" x1="0%" y1="0%" x2="100%" y2="100%">
      <stop offset="0%" stop-color="#1a1a1a"/>
      <stop offset="100%" stop-color="#0d0d0d"/>
    </linearGradient>
  </defs>
  
  <!-- M Letterform - Centered for safe zone -->
  <g transform="translate(256, 256)">
    <path d="M-100 80V-55c0-8 5-14 12-14h36c5 0 9 2 11 6l41 64 41-64c2-4 6-6 11-6h36c7 0 12 6 12 14v135c0 8-5 14-12 14h-30c-7 0-12-6-12-14V40l-36 56c-4 7-14 7-18 0l-36-56v40c0 8-5 14-12 14h-30c-7 0-12-6-12-14z" fill="url(#android-symbol)"/>
  </g>
  
  <!-- Highlight -->
  <path d="M128 180 C168 100, 344 100, 384 180" fill="none" stroke="rgba(255, 255, 255, 0.2)" stroke-width="4" stroke-linecap="round"/>
</svg>
