<svg width="32" height="32" viewBox="0 0 32 32" fill="none" xmlns="http://www.w3.org/2000/svg">
  <!-- Favicon 32x32 -->
  <defs>
    <linearGradient id="fav-gradient" x1="0%" y1="0%" x2="100%" y2="100%">
      <stop offset="0%" stop-color="#FF6B35"/>
      <stop offset="50%" stop-color="#F7931E"/>
      <stop offset="100%" stop-color="#FFD700"/>
    </linearGradient>
    <linearGradient id="fav-symbol" x1="0%" y1="0%" x2="100%" y2="100%">
      <stop offset="0%" stop-color="#1a1a1a"/>
      <stop offset="100%" stop-color="#0d0d0d"/>
    </linearGradient>
  </defs>
  
  <!-- Circle -->
  <circle cx="16" cy="16" r="14" fill="url(#fav-gradient)"/>
  
  <!-- Simplified M -->
  <path d="M8 22V10c0-0.5 0.3-0.9 0.8-0.9h2.8c0.3 0 0.5 0.1 0.7 0.4l3.7 5.8 3.7-5.8c0.2-0.3 0.4-0.4 0.7-0.4h2.8c0.5 0 0.8 0.4 0.8 0.9v12c0 0.5-0.3 0.9-0.8 0.9h-2.4c-0.5 0-0.8-0.4-0.8-0.9v-6l-2.6 4c-0.3 0.5-1.1 0.5-1.4 0l-2.6-4v6c0 0.5-0.3 0.9-0.8 0.9h-2.4c-0.5 0-0.8-0.4-0.8-0.9z" fill="url(#fav-symbol)"/>
</svg>
