<svg width="32" height="32" viewBox="0 0 32 32" fill="none" xmlns="http://www.w3.org/2000/svg">
  <!-- Favicon 32x32 - Divine Lotus -->
  <defs>
    <linearGradient id="fav-gradient" x1="0%" y1="100%" x2="100%" y2="0%">
      <stop offset="0%" stop-color="#FF6B35"/>
      <stop offset="50%" stop-color="#F7931E"/>
      <stop offset="100%" stop-color="#FFD700"/>
    </linearGradient>
    <radialGradient id="fav-light" cx="50%" cy="45%" r="50%">
      <stop offset="0%" stop-color="#FFFEF5"/>
      <stop offset="60%" stop-color="#FFE4B5"/>
      <stop offset="100%" stop-color="#FFD700"/>
    </radialGradient>
    <radialGradient id="fav-halo" cx="50%" cy="50%" r="50%">
      <stop offset="0%" stop-color="rgba(255, 215, 0, 0.4)"/>
      <stop offset="100%" stop-color="rgba(255, 147, 89, 0)"/>
    </radialGradient>
  </defs>

  <!-- Background -->
  <rect width="32" height="32" rx="7" fill="#0B0B0F"/>

  <!-- Halo glow -->
  <circle cx="16" cy="16" r="10" fill="url(#fav-halo)"/>

  <!-- Simplified Divine Lotus -->
  <!-- Top Petal -->
  <path d="M16 6 C18 8, 19 11, 19 14 C19 15.5, 17.5 17, 16 17.5 C14.5 17, 13 15.5, 13 14 C13 11, 14 8, 16 6Z" fill="url(#fav-gradient)" opacity="0.9"/>

  <!-- Left Petal -->
  <path d="M7 14 C9 12.5, 12 12, 14.5 13 C15.5 14.5, 16 16, 16 17 C14 17.5, 10 17, 8 15 C6 13.5, 6 14, 7 14Z" fill="url(#fav-gradient)" opacity="0.8"/>

  <!-- Right Petal -->
  <path d="M25 14 C23 12.5, 20 12, 17.5 13 C16.5 14.5, 16 16, 16 17 C18 17.5, 22 17, 24 15 C26 13.5, 26 14, 25 14Z" fill="url(#fav-gradient)" opacity="0.8"/>

  <!-- Lower Left Petal -->
  <path d="M9 20 C10.5 18.5, 13 18, 15 19 C15.5 20.5, 15.5 22, 15.5 23.5 C13.5 24, 10.5 23, 9.5 21 C8.5 19.5, 8.5 20, 9 20Z" fill="url(#fav-gradient)" opacity="0.7"/>

  <!-- Lower Right Petal -->
  <path d="M23 20 C21.5 18.5, 19 18, 17 19 C16.5 20.5, 16.5 22, 16.5 23.5 C18.5 24, 21.5 23, 22.5 21 C23.5 19.5, 23.5 20, 23 20Z" fill="url(#fav-gradient)" opacity="0.7"/>

  <!-- Inner Light -->
  <ellipse cx="16" cy="15" rx="3" ry="3.5" fill="url(#fav-light)" opacity="0.95"/>
  <ellipse cx="16" cy="14.5" rx="1.5" ry="2" fill="#FFFEF5" opacity="0.9"/>
</svg>
